<svg xmlns="http://www.w3.org/2000/svg" xmlns:xlink="http://www.w3.org/1999/xlink" xml:space="preserve" version="1.1" style="shape-rendering:geometricPrecision;text-rendering:geometricPrecision;image-rendering:optimizeQuality;" viewBox="0 0 28.579 30.535" x="0px" y="0px" fill-rule="evenodd" clip-rule="evenodd" width="50px" height="50px"><defs><style type="text/css">
   
    .fil0 {fill:white;fill-rule:nonzero}
   
  </style></defs><g><path class="fil0" d="M17.926 0.196l10.391 8.671c0.341,0.286 0.34,0.756 0.047,1.076l-7.758 7.76c-0.365,0.365 -0.962,0.183 -1.185,-0.221 -0.922,-1.742 -1.992,-3.514 -3.306,-5.277l-0.117 -0.157 -12.165 12.166c-0.286,0.285 -0.749,0.285 -1.034,0l-2.585 -2.585c-0.285,-0.286 -0.285,-0.749 0,-1.034l12.412 -12.412c-0.425,-0.423 -0.869,-0.844 -1.333,-1.263 -0.3,-0.269 -0.324,-0.731 -0.054,-1.031l5.672 -5.675c0.28,-0.279 0.729,-0.285 1.015,-0.018zm-2.838 10.695c-0.454,-0.554 -0.935,-1.106 -1.446,-1.657l-11.877 11.878 1.551 1.551 11.772 -11.772zm11.679 -1.416l-9.294 -7.755 -4.637 4.637c1.744,1.636 3.202,3.305 4.45,4.98 1.158,1.553 2.13,3.107 2.979,4.639l6.502 -6.501z"/></g><text x="0" y="39.428" fill="#000000" font-size="5px" font-weight="bold" font-family="'Helvetica Neue', Helvetica, Arial-Unicode, Arial, Sans-serif"></text><text x="0" y="44.428" fill="#000000" font-size="5px" font-weight="bold" font-family="'Helvetica Neue', Helvetica, Arial-Unicode, Arial, Sans-serif"></text></svg>